<svg version="1.1" viewBox="0.0 0.0 921.0 569.0" fill="none" stroke="none" stroke-linecap="square" stroke-miterlimit="10" width="921" height="569" xmlns:xlink="http://www.w3.org/1999/xlink" xmlns="http://www.w3.org/2000/svg"><path fill="#ffffff" d="M0 0L921.0 0L921.0 569.0L0 569.0L0 0Z" fill-rule="nonzero"/><path stroke="#333333" stroke-width="1.0" stroke-linecap="butt" d="M184.5 28.5L184.5 520.5" fill-rule="nonzero"/><path stroke="#cccccc" stroke-width="1.0" stroke-linecap="butt" d="M420.5 28.5L420.5 520.5" fill-rule="nonzero"/><path stroke="#cccccc" stroke-width="1.0" stroke-linecap="butt" d="M656.5 28.5L656.5 520.5" fill-rule="nonzero"/><path stroke="#cccccc" stroke-width="1.0" stroke-linecap="butt" d="M892.5 28.5L892.5 520.5" fill-rule="nonzero"/><clipPath id="id_0"><path d="M184.45 28.45L892.55 28.45L892.55 520.55L184.45 520.55L184.45 28.45Z" clip-rule="nonzero"/></clipPath><path stroke="#000000" stroke-width="2.0" stroke-linecap="butt" stroke-opacity="0.0" clip-path="url(#id_0)" d="M184.0 121.0L184.0 61.0L206.0 61.0C207.10457 61.0 208.0 61.89543 208.0 63.0L208.0 119.0C208.0 120.10457 207.10457 121.0 206.0 121.0Z" fill-rule="nonzero"/><path fill="#434343" clip-path="url(#id_0)" d="M184.0 121.0L184.0 61.0L206.0 61.0C207.10457 61.0 208.0 61.89543 208.0 63.0L208.0 119.0C208.0 120.10457 207.10457 121.0 206.0 121.0Z" fill-rule="nonzero"/><path stroke="#000000" stroke-width="2.0" stroke-linecap="butt" stroke-opacity="0.0" clip-path="url(#id_0)" d="M184.0 213.0L184.0 153.0L229.0 153.0C230.10457 153.0 231.0 153.89543 231.0 155.0L231.0 211.0C231.0 212.10457 230.10457 213.0 229.0 213.0Z" fill-rule="nonzero"/><path fill="#434343" clip-path="url(#id_0)" d="M184.0 213.0L184.0 153.0L229.0 153.0C230.10457 153.0 231.0 153.89543 231.0 155.0L231.0 211.0C231.0 212.10457 230.10457 213.0 229.0 213.0Z" fill-rule="nonzero"/><path stroke="#000000" stroke-width="2.0" stroke-linecap="butt" stroke-opacity="0.0" clip-path="url(#id_0)" d="M184.0 304.0L184.0 244.0L255.0 244.0C256.10458 244.0 257.0 244.89543 257.0 246.0L257.0 302.0C257.0 303.10458 256.10458 304.0 255.0 304.0Z" fill-rule="nonzero"/><path fill="#434343" clip-path="url(#id_0)" d="M184.0 304.0L184.0 244.0L255.0 244.0C256.10458 244.0 257.0 244.89543 257.0 246.0L257.0 302.0C257.0 303.10458 256.10458 304.0 255.0 304.0Z" fill-rule="nonzero"/><path stroke="#000000" stroke-width="2.0" stroke-linecap="butt" stroke-opacity="0.0" clip-path="url(#id_0)" d="M184.0 396.0L184.0 336.0L501.0 336.0C502.10458 336.0 503.0 336.89542 503.0 338.0L503.0 394.0C503.0 395.10458 502.10458 396.0 501.0 396.0Z" fill-rule="nonzero"/><path fill="#434343" clip-path="url(#id_0)" d="M184.0 396.0L184.0 336.0L501.0 336.0C502.10458 336.0 503.0 336.89542 503.0 338.0L503.0 394.0C503.0 395.10458 502.10458 396.0 501.0 396.0Z" fill-rule="nonzero"/><path stroke="#000000" stroke-width="2.0" stroke-linecap="butt" stroke-opacity="0.0" clip-path="url(#id_0)" d="M184.0 488.0L184.0 428.0L867.0 428.0C868.10455 428.0 869.0 428.89542 869.0 430.0L869.0 486.0C869.0 487.10458 868.10455 488.0 867.0 488.0Z" fill-rule="nonzero"/><path fill="#434343" clip-path="url(#id_0)" d="M184.0 488.0L184.0 428.0L867.0 428.0C868.10455 428.0 869.0 428.89542 869.0 430.0L869.0 486.0C869.0 487.10458 868.10455 488.0 867.0 488.0Z" fill-rule="nonzero"/><path fill="#000000" d="M124.66875 96.037384L124.66875 84.58426L126.23125 84.58426L132.24687 93.568634L132.24687 84.58426L133.7 84.58426L133.7 96.037384L132.1375 96.037384L126.12187 87.037384L126.12187 96.037384L124.66875 96.037384ZM141.18437 93.36551L142.6375 93.537384Q142.29375 94.818634 141.35625 95.52176Q140.43437 96.224884 138.99687 96.224884Q137.16875 96.224884 136.10625 95.099884Q135.04375 93.974884 135.04375 91.95926Q135.04375 89.86551 136.12187 88.70926Q137.2 87.55301 138.91875 87.55301Q140.575 87.55301 141.62187 88.693634Q142.68437 89.818634 142.68437 91.86551Q142.68437 91.99051 142.68437 92.24051L136.49687 92.24051Q136.575 93.61551 137.2625 94.349884Q137.96562 95.068634 138.99687 95.068634Q139.77812 95.068634 140.325 94.662384Q140.87187 94.256134 141.18437 93.36551ZM136.575 91.08426L141.2 91.08426Q141.10625 90.037384 140.66875 89.52176Q139.99687 88.70926 138.93437 88.70926Q137.96562 88.70926 137.29375 89.36551Q136.6375 90.006134 136.575 91.08426ZM149.95 96.037384L149.95 94.818634Q148.98125 96.224884 147.30937 96.224884Q146.575 96.224884 145.93437 95.943634Q145.30937 95.662384 144.99687 95.24051Q144.68437 94.80301 144.55937 94.193634Q144.48125 93.77176 144.48125 92.881134L144.48125 87.74051L145.8875 87.74051L145.8875 92.33426Q145.8875 93.443634 145.96562 93.818634Q146.10625 94.381134 146.52812 94.693634Q146.96562 95.006134 147.59062 95.006134Q148.23125 95.006134 148.77812 94.693634Q149.34062 94.36551 149.55937 93.80301Q149.79375 93.24051 149.79375 92.17801L149.79375 87.74051L151.2 87.74051L151.2 96.037384L149.95 96.037384ZM155.60625 96.037384L155.60625 85.92801L151.825 85.92801L151.825 84.58426L160.90312 84.58426L160.90312 85.92801L157.12187 85.92801L157.12187 96.037384L155.60625 96.037384ZM167.18437 93.36551L168.6375 93.537384Q168.29375 94.818634 167.35625 95.52176Q166.43437 96.224884 164.99687 96.224884Q163.16875 96.224884 162.10625 95.099884Q161.04375 93.974884 161.04375 91.95926Q161.04375 89.86551 162.12187 88.70926Q163.2 87.55301 164.91875 87.55301Q166.575 87.55301 167.62187 88.693634Q168.68437 89.818634 168.68437 91.86551Q168.68437 91.99051 168.68437 92.24051L162.49687 92.24051Q162.575 93.61551 163.2625 94.349884Q163.96562 95.068634 164.99687 95.068634Q165.77812 95.068634 166.325 94.662384Q166.87187 94.256134 167.18437 93.36551ZM162.575 91.08426L167.2 91.08426Q167.10625 90.037384 166.66875 89.52176Q165.99687 88.70926 164.93437 88.70926Q163.96562 88.70926 163.29375 89.36551Q162.6375 90.006134 162.575 91.08426ZM169.575 96.037384L172.60625 91.724884L169.79375 87.74051L171.55937 87.74051L172.825 89.67801Q173.18437 90.24051 173.40312 90.61551Q173.74687 90.099884 174.04375 89.693634L175.43437 87.74051L177.12187 87.74051L174.24687 91.64676L177.34062 96.037384L175.60625 96.037384L173.90312 93.45926L173.45 92.756134L171.27812 96.037384L169.575 96.037384Z" fill-rule="nonzero"/><path fill="#000000" d="M82.60625 188.01869L82.60625 177.90932L78.825 177.90932L78.825 176.56557L87.90312 176.56557L87.90312 177.90932L84.12187 177.90932L84.12187 188.01869L82.60625 188.01869ZM94.18437 185.34682L95.6375 185.51869Q95.29375 186.79994 94.35625 187.50307Q93.43437 188.20619 91.99687 188.20619Q90.16875 188.20619 89.10625 187.08119Q88.04375 185.95619 88.04375 183.94057Q88.04375 181.84682 89.12187 180.69057Q90.2 179.53432 91.91875 179.53432Q93.575 179.53432 94.62187 180.67494Q95.68437 181.79994 95.68437 183.84682Q95.68437 183.97182 95.68437 184.22182L89.49687 184.22182Q89.575 185.59682 90.2625 186.33119Q90.96562 187.04994 91.99687 187.04994Q92.77812 187.04994 93.325 186.64369Q93.87187 186.23744 94.18437 185.34682ZM89.575 183.06557L94.2 183.06557Q94.10625 182.01869 93.66875 181.50307Q92.99687 180.69057 91.93437 180.69057Q90.96562 180.69057 90.29375 181.34682Q89.6375 181.98744 89.575 183.06557ZM96.575 188.01869L99.60625 183.70619L96.79375 179.72182L98.55937 179.72182L99.825 181.65932Q100.18437 182.22182 100.40312 182.59682Q100.74687 182.08119 101.04375 181.67494L102.43437 179.72182L104.12187 179.72182L101.24687 183.62807L104.34062 188.01869L102.60625 188.01869L100.90312 185.44057L100.45 184.73744L98.27812 188.01869L96.575 188.01869ZM107.575 186.75307L107.77812 188.00307Q107.18437 188.12807 106.71562 188.12807Q105.95 188.12807 105.52812 187.89369Q105.10625 187.64369 104.93437 187.25307Q104.7625 186.84682 104.7625 185.58119L104.7625 180.81557L103.73125 180.81557L103.73125 179.72182L104.7625 179.72182L104.7625 177.65932L106.16875 176.81557L106.16875 179.72182L107.575 179.72182L107.575 180.81557L106.16875 180.81557L106.16875 185.65932Q106.16875 186.26869 106.23125 186.44057Q106.30937 186.61244 106.48125 186.72182Q106.65312 186.81557 106.96562 186.81557Q107.2 186.81557 107.575 186.75307ZM113.95 188.01869L113.95 186.79994Q112.98125 188.20619 111.30937 188.20619Q110.575 188.20619 109.93437 187.92494Q109.30937 187.64369 108.99687 187.22182Q108.68437 186.78432 108.55937 186.17494Q108.48125 185.75307 108.48125 184.86244L108.48125 179.72182L109.8875 179.72182L109.8875 184.31557Q109.8875 185.42494 109.96562 185.79994Q110.10625 186.36244 110.52812 186.67494Q110.96562 186.98744 111.59062 186.98744Q112.23125 186.98744 112.77812 186.67494Q113.34062 186.34682 113.55937 185.78432Q113.79375 185.22182 113.79375 184.15932L113.79375 179.72182L115.2 179.72182L115.2 188.01869L113.95 188.01869ZM116.49687 188.01869L116.49687 179.72182L117.7625 179.72182L117.7625 180.97182Q118.24687 180.09682 118.65312 179.81557Q119.05937 179.53432 119.55937 179.53432Q120.2625 179.53432 120.99687 179.98744L120.5125 181.28432Q119.99687 180.98744 119.48125 180.98744Q119.02812 180.98744 118.65312 181.26869Q118.29375 181.53432 118.1375 182.03432Q117.90312 182.78432 117.90312 183.67494L117.90312 188.01869L116.49687 188.01869ZM127.18437 185.34682L128.6375 185.51869Q128.29375 186.79994 127.35625 187.50307Q126.43437 188.20619 124.99687 188.20619Q123.16875 188.20619 122.10625 187.08119Q121.04375 185.95619 121.04375 183.94057Q121.04375 181.84682 122.12187 180.69057Q123.2 179.53432 124.91875 179.53432Q126.575 179.53432 127.62187 180.67494Q128.68437 181.79994 128.68437 183.84682Q128.68437 183.97182 128.68437 184.22182L122.49687 184.22182Q122.575 185.59682 123.2625 186.33119Q123.96562 187.04994 124.99687 187.04994Q125.77812 187.04994 126.325 186.64369Q126.87187 186.23744 127.18437 185.34682ZM122.575 183.06557L127.2 183.06557Q127.10625 182.01869 126.66875 181.50307Q125.99687 180.69057 124.93437 180.69057Q123.96562 180.69057 123.29375 181.34682Q122.6375 181.98744 122.575 183.06557ZM134.7625 188.01869L134.7625 176.56557L142.49687 176.56557L142.49687 177.90932L136.27812 177.90932L136.27812 181.45619L141.65312 181.45619L141.65312 182.81557L136.27812 182.81557L136.27812 188.01869L134.7625 188.01869ZM144.5125 178.17494L144.5125 176.56557L145.91875 176.56557L145.91875 178.17494L144.5125 178.17494ZM144.5125 188.01869L144.5125 179.72182L145.91875 179.72182L145.91875 188.01869L144.5125 188.01869ZM154.18437 185.34682L155.6375 185.51869Q155.29375 186.79994 154.35625 187.50307Q153.43437 188.20619 151.99687 188.20619Q150.16875 188.20619 149.10625 187.08119Q148.04375 185.95619 148.04375 183.94057Q148.04375 181.84682 149.12187 180.69057Q150.2 179.53432 151.91875 179.53432Q153.575 179.53432 154.62187 180.67494Q155.68437 181.79994 155.68437 183.84682Q155.68437 183.97182 155.68437 184.22182L149.49687 184.22182Q149.575 185.59682 150.2625 186.33119Q150.96562 187.04994 151.99687 187.04994Q152.77812 187.04994 153.325 186.64369Q153.87187 186.23744 154.18437 185.34682ZM149.575 183.06557L154.2 183.06557Q154.10625 182.01869 153.66875 181.50307Q152.99687 180.69057 151.93437 180.69057Q150.96562 180.69057 150.29375 181.34682Q149.6375 181.98744 149.575 183.06557ZM157.48125 188.01869L157.48125 176.56557L158.8875 176.56557L158.8875 188.01869L157.48125 188.01869ZM165.8875 188.01869L165.8875 186.97182Q165.10625 188.20619 163.575 188.20619Q162.575 188.20619 161.74687 187.65932Q160.91875 187.11244 160.45 186.12807Q159.99687 185.14369 159.99687 183.87807Q159.99687 182.62807 160.40312 181.62807Q160.825 180.61244 161.65312 180.08119Q162.48125 179.53432 163.5125 179.53432Q164.2625 179.53432 164.84062 179.84682Q165.43437 180.15932 165.79375 180.67494L165.79375 176.56557L167.2 176.56557L167.2 188.01869L165.8875 188.01869ZM161.45 183.87807Q161.45 185.47182 162.12187 186.26869Q162.79375 187.04994 163.7 187.04994Q164.62187 187.04994 165.2625 186.29994Q165.91875 185.53432 165.91875 183.98744Q165.91875 182.28432 165.2625 181.48744Q164.60625 180.69057 163.6375 180.69057Q162.7 180.69057 162.075 181.45619Q161.45 182.22182 161.45 183.87807ZM168.95 185.53432L170.34062 185.31557Q170.45 186.15932 170.98125 186.61244Q171.52812 187.04994 172.48125 187.04994Q173.45 187.04994 173.91875 186.65932Q174.3875 186.25307 174.3875 185.72182Q174.3875 185.25307 173.98125 184.97182Q173.68437 184.78432 172.54375 184.50307Q170.99687 184.11244 170.3875 183.83119Q169.79375 183.53432 169.48125 183.03432Q169.18437 182.53432 169.18437 181.92494Q169.18437 181.36244 169.43437 180.89369Q169.68437 180.42494 170.12187 180.11244Q170.45 179.86244 171.0125 179.70619Q171.59062 179.53432 172.23125 179.53432Q173.21562 179.53432 173.95 179.81557Q174.68437 180.09682 175.02812 180.58119Q175.3875 181.04994 175.52812 181.86244L174.15312 182.04994Q174.05937 181.40932 173.60625 181.04994Q173.15312 180.69057 172.34062 180.69057Q171.37187 180.69057 170.95 181.01869Q170.54375 181.33119 170.54375 181.75307Q170.54375 182.03432 170.71562 182.25307Q170.8875 182.47182 171.24687 182.62807Q171.46562 182.70619 172.49687 182.98744Q173.98125 183.37807 174.575 183.64369Q175.16875 183.89369 175.49687 184.37807Q175.84062 184.86244 175.84062 185.58119Q175.84062 186.28432 175.41875 186.90932Q175.0125 187.51869 174.23125 187.86244Q173.46562 188.20619 172.49687 188.20619Q170.87187 188.20619 170.02812 187.53432Q169.18437 186.86244 168.95 185.53432Z" fill-rule="nonzero"/><path fill="#000000" d="M29.95 280.0L29.95 268.54688L31.465626 268.54688L31.465626 280.0L29.95 280.0ZM32.5125 280.0L32.5125 271.70312L33.778126 271.70312L33.778126 272.875Q34.684376 271.51562 36.41875 271.51562Q37.16875 271.51562 37.79375 271.78125Q38.41875 272.04688 38.73125 272.48438Q39.04375 272.92188 39.16875 273.53125Q39.246876 273.92188 39.246876 274.89062L39.246876 280.0L37.840626 280.0L37.840626 274.95312Q37.840626 274.09375 37.66875 273.67188Q37.5125 273.23438 37.090626 272.98438Q36.684376 272.73438 36.121876 272.73438Q35.215626 272.73438 34.559376 273.3125Q33.91875 273.875 33.91875 275.46875L33.91875 280.0L32.5125 280.0ZM43.575 278.73438L43.778126 279.98438Q43.184376 280.10938 42.715626 280.10938Q41.95 280.10938 41.528126 279.875Q41.10625 279.625 40.934376 279.23438Q40.7625 278.82812 40.7625 277.5625L40.7625 272.79688L39.73125 272.79688L39.73125 271.70312L40.7625 271.70312L40.7625 269.64062L42.16875 268.79688L42.16875 271.70312L43.575 271.70312L43.575 272.79688L42.16875 272.79688L42.16875 277.64062Q42.16875 278.25 42.23125 278.42188Q42.309376 278.59375 42.48125 278.70312Q42.653126 278.79688 42.965626 278.79688Q43.2 278.79688 43.575 278.73438ZM44.496876 280.0L44.496876 271.70312L45.7625 271.70312L45.7625 272.95312Q46.246876 272.07812 46.653126 271.79688Q47.059376 271.51562 47.559376 271.51562Q48.2625 271.51562 48.996876 271.96875L48.5125 273.26562Q47.996876 272.96875 47.48125 272.96875Q47.028126 272.96875 46.653126 273.25Q46.29375 273.51562 46.1375 274.01562Q45.903126 274.76562 45.903126 275.65625L45.903126 280.0L44.496876 280.0ZM49.5125 270.15625L49.5125 268.54688L50.91875 268.54688L50.91875 270.15625L49.5125 270.15625ZM49.5125 280.0L49.5125 271.70312L50.91875 271.70312L50.91875 280.0L49.5125 280.0ZM53.5125 280.0L53.5125 271.70312L54.778126 271.70312L54.778126 272.875Q55.684376 271.51562 57.41875 271.51562Q58.16875 271.51562 58.79375 271.78125Q59.41875 272.04688 59.73125 272.48438Q60.04375 272.92188 60.16875 273.53125Q60.246876 273.92188 60.246876 274.89062L60.246876 280.0L58.840626 280.0L58.840626 274.95312Q58.840626 274.09375 58.66875 273.67188Q58.5125 273.23438 58.090626 272.98438Q57.684376 272.73438 57.121876 272.73438Q56.215626 272.73438 55.559376 273.3125Q54.91875 273.875 54.91875 275.46875L54.91875 280.0L53.5125 280.0ZM60.95 277.51562L62.340626 277.29688Q62.45 278.14062 62.98125 278.59375Q63.528126 279.03125 64.48125 279.03125Q65.45 279.03125 65.91875 278.64062Q66.3875 278.23438 66.3875 277.70312Q66.3875 277.23438 65.98125 276.95312Q65.68437 276.76562 64.54375 276.48438Q62.996876 276.09375 62.3875 275.8125Q61.79375 275.51562 61.48125 275.01562Q61.184376 274.51562 61.184376 273.90625Q61.184376 273.34375 61.434376 272.875Q61.684376 272.40625 62.121876 272.09375Q62.45 271.84375 63.0125 271.6875Q63.590626 271.51562 64.23125 271.51562Q65.21562 271.51562 65.95 271.79688Q66.68437 272.07812 67.02812 272.5625Q67.3875 273.03125 67.52812 273.84375L66.15312 274.03125Q66.05937 273.39062 65.60625 273.03125Q65.15312 272.67188 64.34062 272.67188Q63.371876 272.67188 62.95 273.0Q62.54375 273.3125 62.54375 273.73438Q62.54375 274.01562 62.715626 274.23438Q62.8875 274.45312 63.246876 274.60938Q63.465626 274.6875 64.49687 274.96875Q65.98125 275.35938 66.575 275.625Q67.16875 275.875 67.49687 276.35938Q67.84062 276.84375 67.84062 277.5625Q67.84062 278.26562 67.41875 278.89062Q67.0125 279.5 66.23125 279.84375Q65.46562 280.1875 64.49687 280.1875Q62.871876 280.1875 62.028126 279.51562Q61.184376 278.84375 60.95 277.51562ZM69.5125 270.15625L69.5125 268.54688L70.91875 268.54688L70.91875 270.15625L69.5125 270.15625ZM69.5125 280.0L69.5125 271.70312L70.91875 271.70312L70.91875 280.0L69.5125 280.0ZM78.91875 276.95312L80.30937 277.14062Q80.075 278.5625 79.1375 279.375Q78.21562 280.1875 76.85625 280.1875Q75.15312 280.1875 74.10625 279.07812Q73.075 277.95312 73.075 275.875Q73.075 274.53125 73.5125 273.53125Q73.96562 272.51562 74.87187 272.01562Q75.79375 271.51562 76.85625 271.51562Q78.21562 271.51562 79.075 272.20312Q79.93437 272.875 80.16875 274.14062L78.80937 274.34375Q78.60625 273.51562 78.10625 273.09375Q77.62187 272.67188 76.91875 272.67188Q75.85625 272.67188 75.18437 273.4375Q74.52812 274.1875 74.52812 275.84375Q74.52812 277.51562 75.16875 278.28125Q75.80937 279.03125 76.84062 279.03125Q77.66875 279.03125 78.21562 278.53125Q78.77812 278.01562 78.91875 276.95312ZM85.66875 280.0L85.66875 268.54688L87.23125 268.54688L93.24687 277.53125L93.24687 268.54688L94.7 268.54688L94.7 280.0L93.1375 280.0L87.12187 271.0L87.12187 280.0L85.66875 280.0ZM102.18437 277.32812L103.6375 277.5Q103.29375 278.78125 102.35625 279.48438Q101.43437 280.1875 99.99687 280.1875Q98.16875 280.1875 97.10625 279.0625Q96.04375 277.9375 96.04375 275.92188Q96.04375 273.82812 97.12187 272.67188Q98.2 271.51562 99.91875 271.51562Q101.575 271.51562 102.62187 272.65625Q103.68437 273.78125 103.68437 275.82812Q103.68437 275.95312 103.68437 276.20312L97.49687 276.20312Q97.575 277.57812 98.2625 278.3125Q98.96562 279.03125 99.99687 279.03125Q100.77812 279.03125 101.325 278.625Q101.87187 278.21875 102.18437 277.32812ZM97.575 275.04688L102.2 275.04688Q102.10625 274.0 101.66875 273.48438Q100.99687 272.67188 99.93437 272.67188Q98.96562 272.67188 98.29375 273.32812Q97.6375 273.96875 97.575 275.04688ZM110.95 280.0L110.95 278.78125Q109.98125 280.1875 108.30937 280.1875Q107.575 280.1875 106.93437 279.90625Q106.30937 279.625 105.99687 279.20312Q105.68437 278.76562 105.55937 278.15625Q105.48125 277.73438 105.48125 276.84375L105.48125 271.70312L106.8875 271.70312L106.8875 276.29688Q106.8875 277.40625 106.96562 277.78125Q107.10625 278.34375 107.52812 278.65625Q107.96562 278.96875 108.59062 278.96875Q109.23125 278.96875 109.77812 278.65625Q110.34062 278.32812 110.55937 277.76562Q110.79375 277.20312 110.79375 276.14062L110.79375 271.70312L112.2 271.70312L112.2 280.0L110.95 280.0ZM113.49687 280.0L113.49687 271.70312L114.7625 271.70312L114.7625 272.95312Q115.24687 272.07812 115.65312 271.79688Q116.05937 271.51562 116.55937 271.51562Q117.2625 271.51562 117.99687 271.96875L117.5125 273.26562Q116.99687 272.96875 116.48125 272.96875Q116.02812 272.96875 115.65312 273.25Q115.29375 273.51562 115.1375 274.01562Q114.90312 274.76562 114.90312 275.65625L114.90312 280.0L113.49687 280.0ZM123.91875 278.96875Q123.1375 279.64062 122.41875 279.92188Q121.7 280.1875 120.87187 280.1875Q119.49687 280.1875 118.7625 279.51562Q118.02812 278.84375 118.02812 277.8125Q118.02812 277.20312 118.30937 276.70312Q118.59062 276.1875 119.02812 275.89062Q119.48125 275.57812 120.04375 275.42188Q120.46562 275.3125 121.29375 275.21875Q122.99687 275.01562 123.80937 274.73438Q123.80937 274.4375 123.80937 274.35938Q123.80937 273.5 123.41875 273.15625Q122.87187 272.67188 121.80937 272.67188Q120.825 272.67188 120.34062 273.03125Q119.87187 273.375 119.65312 274.25L118.27812 274.0625Q118.46562 273.1875 118.8875 272.64062Q119.325 272.09375 120.1375 271.8125Q120.95 271.51562 122.0125 271.51562Q123.075 271.51562 123.73125 271.76562Q124.40312 272.01562 124.71562 272.39062Q125.02812 272.76562 125.15312 273.34375Q125.23125 273.70312 125.23125 274.64062L125.23125 276.51562Q125.23125 278.48438 125.30937 279.0Q125.40312 279.51562 125.66875 280.0L124.2 280.0Q123.98125 279.5625 123.91875 278.96875ZM123.80937 275.82812Q123.04375 276.14062 121.5125 276.35938Q120.6375 276.48438 120.27812 276.64062Q119.91875 276.79688 119.71562 277.10938Q119.52812 277.40625 119.52812 277.76562Q119.52812 278.32812 119.95 278.70312Q120.3875 279.07812 121.2 279.07812Q122.0125 279.07812 122.6375 278.73438Q123.27812 278.375 123.575 277.75Q123.80937 277.28125 123.80937 276.34375L123.80937 275.82812ZM127.48125 280.0L127.48125 268.54688L128.8875 268.54688L128.8875 280.0L127.48125 280.0ZM134.7625 280.0L134.7625 268.54688L142.49687 268.54688L142.49687 269.89062L136.27812 269.89062L136.27812 273.4375L141.65312 273.4375L141.65312 274.79688L136.27812 274.79688L136.27812 280.0L134.7625 280.0ZM144.5125 270.15625L144.5125 268.54688L145.91875 268.54688L145.91875 270.15625L144.5125 270.15625ZM144.5125 280.0L144.5125 271.70312L145.91875 271.70312L145.91875 280.0L144.5125 280.0ZM154.18437 277.32812L155.6375 277.5Q155.29375 278.78125 154.35625 279.48438Q153.43437 280.1875 151.99687 280.1875Q150.16875 280.1875 149.10625 279.0625Q148.04375 277.9375 148.04375 275.92188Q148.04375 273.82812 149.12187 272.67188Q150.2 271.51562 151.91875 271.51562Q153.575 271.51562 154.62187 272.65625Q155.68437 273.78125 155.68437 275.82812Q155.68437 275.95312 155.68437 276.20312L149.49687 276.20312Q149.575 277.57812 150.2625 278.3125Q150.96562 279.03125 151.99687 279.03125Q152.77812 279.03125 153.325 278.625Q153.87187 278.21875 154.18437 277.32812ZM149.575 275.04688L154.2 275.04688Q154.10625 274.0 153.66875 273.48438Q152.99687 272.67188 151.93437 272.67188Q150.96562 272.67188 150.29375 273.32812Q149.6375 273.96875 149.575 275.04688ZM157.48125 280.0L157.48125 268.54688L158.8875 268.54688L158.8875 280.0L157.48125 280.0ZM165.8875 280.0L165.8875 278.95312Q165.10625 280.1875 163.575 280.1875Q162.575 280.1875 161.74687 279.64062Q160.91875 279.09375 160.45 278.10938Q159.99687 277.125 159.99687 275.85938Q159.99687 274.60938 160.40312 273.60938Q160.825 272.59375 161.65312 272.0625Q162.48125 271.51562 163.5125 271.51562Q164.2625 271.51562 164.84062 271.82812Q165.43437 272.14062 165.79375 272.65625L165.79375 268.54688L167.2 268.54688L167.2 280.0L165.8875 280.0ZM161.45 275.85938Q161.45 277.45312 162.12187 278.25Q162.79375 279.03125 163.7 279.03125Q164.62187 279.03125 165.2625 278.28125Q165.91875 277.51562 165.91875 275.96875Q165.91875 274.26562 165.2625 273.46875Q164.60625 272.67188 163.6375 272.67188Q162.7 272.67188 162.075 273.4375Q161.45 274.20312 161.45 275.85938ZM168.95 277.51562L170.34062 277.29688Q170.45 278.14062 170.98125 278.59375Q171.52812 279.03125 172.48125 279.03125Q173.45 279.03125 173.91875 278.64062Q174.3875 278.23438 174.3875 277.70312Q174.3875 277.23438 173.98125 276.95312Q173.68437 276.76562 172.54375 276.48438Q170.99687 276.09375 170.3875 275.8125Q169.79375 275.51562 169.48125 275.01562Q169.18437 274.51562 169.18437 273.90625Q169.18437 273.34375 169.43437 272.875Q169.68437 272.40625 170.12187 272.09375Q170.45 271.84375 171.0125 271.6875Q171.59062 271.51562 172.23125 271.51562Q173.21562 271.51562 173.95 271.79688Q174.68437 272.07812 175.02812 272.5625Q175.3875 273.03125 175.52812 273.84375L174.15312 274.03125Q174.05937 273.39062 173.60625 273.03125Q173.15312 272.67188 172.34062 272.67188Q171.37187 272.67188 170.95 273.0Q170.54375 273.3125 170.54375 273.73438Q170.54375 274.01562 170.71562 274.23438Q170.8875 274.45312 171.24687 274.60938Q171.46562 274.6875 172.49687 274.96875Q173.98125 275.35938 174.575 275.625Q175.16875 275.875 175.49687 276.35938Q175.84062 276.84375 175.84062 277.5625Q175.84062 278.26562 175.41875 278.89062Q175.0125 279.5 174.23125 279.84375Q173.46562 280.1875 172.49687 280.1875Q170.87187 280.1875 170.02812 279.51562Q169.18437 278.84375 168.95 277.51562Z" fill-rule="nonzero"/><path fill="#000000" d="M60.6375 371.98132L60.6375 360.5282L62.91875 360.5282L65.6375 368.63757Q66.0125 369.76257 66.18437 370.32507Q66.37187 369.70007 66.79375 368.49695L69.52812 360.5282L71.575 360.5282L71.575 371.98132L70.10625 371.98132L70.10625 362.38757L66.77812 371.98132L65.41875 371.98132L62.10625 362.23132L62.10625 371.98132L60.6375 371.98132ZM79.18437 369.30945L80.6375 369.48132Q80.29375 370.76257 79.35625 371.4657Q78.43437 372.16882 76.99687 372.16882Q75.16875 372.16882 74.10625 371.04382Q73.04375 369.91882 73.04375 367.9032Q73.04375 365.80945 74.12187 364.6532Q75.2 363.49695 76.91875 363.49695Q78.575 363.49695 79.62187 364.63757Q80.68437 365.76257 80.68437 367.80945Q80.68437 367.93445 80.68437 368.18445L74.49687 368.18445Q74.575 369.55945 75.2625 370.29382Q75.96562 371.01257 76.99687 371.01257Q77.77812 371.01257 78.325 370.60632Q78.87187 370.20007 79.18437 369.30945ZM74.575 367.0282L79.2 367.0282Q79.10625 365.98132 78.66875 365.4657Q77.99687 364.6532 76.93437 364.6532Q75.96562 364.6532 75.29375 365.30945Q74.6375 365.95007 74.575 367.0282ZM81.95 369.49695L83.34062 369.2782Q83.45 370.12195 83.98125 370.57507Q84.52812 371.01257 85.48125 371.01257Q86.45 371.01257 86.91875 370.62195Q87.3875 370.2157 87.3875 369.68445Q87.3875 369.2157 86.98125 368.93445Q86.68437 368.74695 85.54375 368.4657Q83.99687 368.07507 83.3875 367.79382Q82.79375 367.49695 82.48125 366.99695Q82.18437 366.49695 82.18437 365.88757Q82.18437 365.32507 82.43437 364.85632Q82.68437 364.38757 83.12187 364.07507Q83.45 363.82507 84.0125 363.66882Q84.59062 363.49695 85.23125 363.49695Q86.21562 363.49695 86.95 363.7782Q87.68437 364.05945 88.02812 364.54382Q88.3875 365.01257 88.52812 365.82507L87.15312 366.01257Q87.05937 365.37195 86.60625 365.01257Q86.15312 364.6532 85.34062 364.6532Q84.37187 364.6532 83.95 364.98132Q83.54375 365.29382 83.54375 365.7157Q83.54375 365.99695 83.71562 366.2157Q83.8875 366.43445 84.24687 366.5907Q84.46562 366.66882 85.49687 366.95007Q86.98125 367.3407 87.575 367.60632Q88.16875 367.85632 88.49687 368.3407Q88.84062 368.82507 88.84062 369.54382Q88.84062 370.24695 88.41875 370.87195Q88.0125 371.48132 87.23125 371.82507Q86.46562 372.16882 85.49687 372.16882Q83.87187 372.16882 83.02812 371.49695Q82.18437 370.82507 81.95 369.49695ZM90.5125 371.98132L90.5125 360.5282L91.91875 360.5282L91.91875 364.63757Q92.90312 363.49695 94.40312 363.49695Q95.325 363.49695 95.99687 363.85632Q96.68437 364.2157 96.96562 364.85632Q97.2625 365.49695 97.2625 366.7157L97.2625 371.98132L95.85625 371.98132L95.85625 366.7157Q95.85625 365.66882 95.40312 365.18445Q94.95 364.70007 94.10625 364.70007Q93.48125 364.70007 92.93437 365.0282Q92.3875 365.35632 92.15312 365.91882Q91.91875 366.4657 91.91875 367.43445L91.91875 371.98132L90.5125 371.98132ZM98.7625 371.98132L98.7625 360.5282L106.49687 360.5282L106.49687 361.87195L100.27812 361.87195L100.27812 365.41882L105.65312 365.41882L105.65312 366.7782L100.27812 366.7782L100.27812 371.98132L98.7625 371.98132ZM114.18437 369.30945L115.6375 369.48132Q115.29375 370.76257 114.35625 371.4657Q113.43437 372.16882 111.99687 372.16882Q110.16875 372.16882 109.10625 371.04382Q108.04375 369.91882 108.04375 367.9032Q108.04375 365.80945 109.12187 364.6532Q110.2 363.49695 111.91875 363.49695Q113.575 363.49695 114.62187 364.63757Q115.68437 365.76257 115.68437 367.80945Q115.68437 367.93445 115.68437 368.18445L109.49687 368.18445Q109.575 369.55945 110.2625 370.29382Q110.96562 371.01257 111.99687 371.01257Q112.77812 371.01257 113.325 370.60632Q113.87187 370.20007 114.18437 369.30945ZM109.575 367.0282L114.2 367.0282Q114.10625 365.98132 113.66875 365.4657Q112.99687 364.6532 111.93437 364.6532Q110.96562 364.6532 110.29375 365.30945Q109.6375 365.95007 109.575 367.0282ZM122.91875 370.95007Q122.1375 371.62195 121.41875 371.9032Q120.7 372.16882 119.87187 372.16882Q118.49687 372.16882 117.7625 371.49695Q117.02812 370.82507 117.02812 369.79382Q117.02812 369.18445 117.30937 368.68445Q117.59062 368.16882 118.02812 367.87195Q118.48125 367.55945 119.04375 367.4032Q119.46562 367.29382 120.29375 367.20007Q121.99687 366.99695 122.80937 366.7157Q122.80937 366.41882 122.80937 366.3407Q122.80937 365.48132 122.41875 365.13757Q121.87187 364.6532 120.80937 364.6532Q119.825 364.6532 119.34062 365.01257Q118.87187 365.35632 118.65312 366.23132L117.27812 366.04382Q117.46562 365.16882 117.8875 364.62195Q118.325 364.07507 119.1375 363.79382Q119.95 363.49695 121.0125 363.49695Q122.075 363.49695 122.73125 363.74695Q123.40312 363.99695 123.71562 364.37195Q124.02812 364.74695 124.15312 365.32507Q124.23125 365.68445 124.23125 366.62195L124.23125 368.49695Q124.23125 370.4657 124.30937 370.98132Q124.40312 371.49695 124.66875 371.98132L123.2 371.98132Q122.98125 371.54382 122.91875 370.95007ZM122.80937 367.80945Q122.04375 368.12195 120.5125 368.3407Q119.6375 368.4657 119.27812 368.62195Q118.91875 368.7782 118.71562 369.0907Q118.52812 369.38757 118.52812 369.74695Q118.52812 370.30945 118.95 370.68445Q119.3875 371.05945 120.2 371.05945Q121.0125 371.05945 121.6375 370.7157Q122.27812 370.35632 122.575 369.73132Q122.80937 369.26257 122.80937 368.32507L122.80937 367.80945ZM129.575 370.7157L129.77812 371.9657Q129.18437 372.0907 128.71562 372.0907Q127.95 372.0907 127.52812 371.85632Q127.10625 371.60632 126.93437 371.2157Q126.7625 370.80945 126.7625 369.54382L126.7625 364.7782L125.73125 364.7782L125.73125 363.68445L126.7625 363.68445L126.7625 361.62195L128.16875 360.7782L128.16875 363.68445L129.575 363.68445L129.575 364.7782L128.16875 364.7782L128.16875 369.62195Q128.16875 370.23132 128.23125 370.4032Q128.30937 370.57507 128.48125 370.68445Q128.65312 370.7782 128.96562 370.7782Q129.2 370.7782 129.575 370.7157ZM137.2 375.35632Q136.02812 373.88757 135.21562 371.91882Q134.41875 369.93445 134.41875 367.82507Q134.41875 365.9657 135.02812 364.26257Q135.73125 362.29382 137.2 360.32507L138.2 360.32507Q137.2625 361.95007 136.95 362.6532Q136.48125 363.73132 136.2 364.9032Q135.87187 366.35632 135.87187 367.8407Q135.87187 371.5907 138.2 375.35632L137.2 375.35632ZM139.23125 366.4032Q139.23125 363.54382 140.7625 361.93445Q142.29375 360.32507 144.71562 360.32507Q146.29375 360.32507 147.55937 361.0907Q148.84062 361.8407 149.5125 363.20007Q150.18437 364.54382 150.18437 366.26257Q150.18437 368.01257 149.48125 369.38757Q148.77812 370.76257 147.48125 371.48132Q146.2 372.18445 144.7 372.18445Q143.09062 372.18445 141.80937 371.4032Q140.54375 370.60632 139.8875 369.26257Q139.23125 367.9032 139.23125 366.4032ZM140.79375 366.41882Q140.79375 368.49695 141.90312 369.68445Q143.0125 370.87195 144.7 370.87195Q146.40312 370.87195 147.5125 369.66882Q148.62187 368.4657 148.62187 366.26257Q148.62187 364.85632 148.1375 363.82507Q147.66875 362.7782 146.7625 362.20007Q145.85625 361.62195 144.71562 361.62195Q143.10625 361.62195 141.95 362.73132Q140.79375 363.8407 140.79375 366.41882ZM156.95 371.98132L156.95 370.76257Q155.98125 372.16882 154.30937 372.16882Q153.575 372.16882 152.93437 371.88757Q152.30937 371.60632 151.99687 371.18445Q151.68437 370.74695 151.55937 370.13757Q151.48125 369.7157 151.48125 368.82507L151.48125 363.68445L152.8875 363.68445L152.8875 368.2782Q152.8875 369.38757 152.96562 369.76257Q153.10625 370.32507 153.52812 370.63757Q153.96562 370.95007 154.59062 370.95007Q155.23125 370.95007 155.77812 370.63757Q156.34062 370.30945 156.55937 369.74695Q156.79375 369.18445 156.79375 368.12195L156.79375 363.68445L158.2 363.68445L158.2 371.98132L156.95 371.98132ZM159.49687 371.98132L159.49687 363.68445L160.7625 363.68445L160.7625 364.93445Q161.24687 364.05945 161.65312 363.7782Q162.05937 363.49695 162.55937 363.49695Q163.2625 363.49695 163.99687 363.95007L163.5125 365.24695Q162.99687 364.95007 162.48125 364.95007Q162.02812 364.95007 161.65312 365.23132Q161.29375 365.49695 161.1375 365.99695Q160.90312 366.74695 160.90312 367.63757L160.90312 371.98132L159.49687 371.98132ZM163.95 369.49695L165.34062 369.2782Q165.45 370.12195 165.98125 370.57507Q166.52812 371.01257 167.48125 371.01257Q168.45 371.01257 168.91875 370.62195Q169.3875 370.2157 169.3875 369.68445Q169.3875 369.2157 168.98125 368.93445Q168.68437 368.74695 167.54375 368.4657Q165.99687 368.07507 165.3875 367.79382Q164.79375 367.49695 164.48125 366.99695Q164.18437 366.49695 164.18437 365.88757Q164.18437 365.32507 164.43437 364.85632Q164.68437 364.38757 165.12187 364.07507Q165.45 363.82507 166.0125 363.66882Q166.59062 363.49695 167.23125 363.49695Q168.21562 363.49695 168.95 363.7782Q169.68437 364.05945 170.02812 364.54382Q170.3875 365.01257 170.52812 365.82507L169.15312 366.01257Q169.05937 365.37195 168.60625 365.01257Q168.15312 364.6532 167.34062 364.6532Q166.37187 364.6532 165.95 364.98132Q165.54375 365.29382 165.54375 365.7157Q165.54375 365.99695 165.71562 366.2157Q165.8875 366.43445 166.24687 366.5907Q166.46562 366.66882 167.49687 366.95007Q168.98125 367.3407 169.575 367.60632Q170.16875 367.85632 170.49687 368.3407Q170.84062 368.82507 170.84062 369.54382Q170.84062 370.24695 170.41875 370.87195Q170.0125 371.48132 169.23125 371.82507Q168.46562 372.16882 167.49687 372.16882Q165.87187 372.16882 165.02812 371.49695Q164.18437 370.82507 163.95 369.49695ZM173.43437 375.35632L172.41875 375.35632Q174.7625 371.5907 174.7625 367.8407Q174.7625 366.37195 174.41875 364.91882Q174.15312 363.74695 173.68437 362.66882Q173.37187 361.9657 172.41875 360.32507L173.43437 360.32507Q174.90312 362.29382 175.60625 364.26257Q176.2 365.9657 176.2 367.82507Q176.2 369.93445 175.3875 371.91882Q174.59062 373.88757 173.43437 375.35632Z" fill-rule="nonzero"/><path fill="#000000" d="M33.66875 463.96262L33.66875 452.5095L35.23125 452.5095L41.246876 461.49387L41.246876 452.5095L42.7 452.5095L42.7 463.96262L41.1375 463.96262L35.121876 454.96262L35.121876 463.96262L33.66875 463.96262ZM43.98125 459.80637Q43.98125 457.5095 45.2625 456.40012Q46.340626 455.47824 47.871876 455.47824Q49.590626 455.47824 50.66875 456.60324Q51.7625 457.71262 51.7625 459.697Q51.7625 461.29074 51.278126 462.21262Q50.79375 463.1345 49.871876 463.65012Q48.965626 464.15012 47.871876 464.15012Q46.1375 464.15012 45.059376 463.04074Q43.98125 461.91574 43.98125 459.80637ZM45.434376 459.80637Q45.434376 461.40012 46.121876 462.197Q46.825 462.99387 47.871876 462.99387Q48.91875 462.99387 49.60625 462.197Q50.309376 461.40012 50.309376 459.7595Q50.309376 458.22824 49.60625 457.43137Q48.91875 456.6345 47.871876 456.6345Q46.825 456.6345 46.121876 457.43137Q45.434376 458.21262 45.434376 459.80637ZM53.5125 463.96262L53.5125 455.66574L54.778126 455.66574L54.778126 456.83762Q55.684376 455.47824 57.41875 455.47824Q58.16875 455.47824 58.79375 455.74387Q59.41875 456.0095 59.73125 456.447Q60.04375 456.8845 60.16875 457.49387Q60.246876 457.8845 60.246876 458.85324L60.246876 463.96262L58.840626 463.96262L58.840626 458.91574Q58.840626 458.05637 58.66875 457.6345Q58.5125 457.197 58.090626 456.947Q57.684376 456.697 57.121876 456.697Q56.215626 456.697 55.559376 457.27512Q54.91875 457.83762 54.91875 459.43137L54.91875 463.96262L53.5125 463.96262ZM65.5125 463.96262L65.5125 455.66574L66.77812 455.66574L66.77812 456.83762Q67.68437 455.47824 69.41875 455.47824Q70.16875 455.47824 70.79375 455.74387Q71.41875 456.0095 71.73125 456.447Q72.04375 456.8845 72.16875 457.49387Q72.24687 457.8845 72.24687 458.85324L72.24687 463.96262L70.84062 463.96262L70.84062 458.91574Q70.84062 458.05637 70.66875 457.6345Q70.5125 457.197 70.09062 456.947Q69.68437 456.697 69.12187 456.697Q68.21562 456.697 67.55937 457.27512Q66.91875 457.83762 66.91875 459.43137L66.91875 463.96262L65.5125 463.96262ZM79.18437 461.29074L80.6375 461.46262Q80.29375 462.74387 79.35625 463.447Q78.43437 464.15012 76.99687 464.15012Q75.16875 464.15012 74.10625 463.02512Q73.04375 461.90012 73.04375 459.8845Q73.04375 457.79074 74.12187 456.6345Q75.2 455.47824 76.91875 455.47824Q78.575 455.47824 79.62187 456.61887Q80.68437 457.74387 80.68437 459.79074Q80.68437 459.91574 80.68437 460.16574L74.49687 460.16574Q74.575 461.54074 75.2625 462.27512Q75.96562 462.99387 76.99687 462.99387Q77.77812 462.99387 78.325 462.58762Q78.87187 462.18137 79.18437 461.29074ZM74.575 459.0095L79.2 459.0095Q79.10625 457.96262 78.66875 457.447Q77.99687 456.6345 76.93437 456.6345Q75.96562 456.6345 75.29375 457.29074Q74.6375 457.93137 74.575 459.0095ZM87.95 463.96262L87.95 462.74387Q86.98125 464.15012 85.30937 464.15012Q84.575 464.15012 83.93437 463.86887Q83.30937 463.58762 82.99687 463.16574Q82.68437 462.72824 82.55937 462.11887Q82.48125 461.697 82.48125 460.80637L82.48125 455.66574L83.8875 455.66574L83.8875 460.2595Q83.8875 461.36887 83.96562 461.74387Q84.10625 462.30637 84.52812 462.61887Q84.96562 462.93137 85.59062 462.93137Q86.23125 462.93137 86.77812 462.61887Q87.34062 462.29074 87.55937 461.72824Q87.79375 461.16574 87.79375 460.10324L87.79375 455.66574L89.2 455.66574L89.2 463.96262L87.95 463.96262ZM90.49687 463.96262L90.49687 455.66574L91.7625 455.66574L91.7625 456.91574Q92.24687 456.04074 92.65312 455.7595Q93.05937 455.47824 93.55937 455.47824Q94.2625 455.47824 94.99687 455.93137L94.5125 457.22824Q93.99687 456.93137 93.48125 456.93137Q93.02812 456.93137 92.65312 457.21262Q92.29375 457.47824 92.1375 457.97824Q91.90312 458.72824 91.90312 459.61887L91.90312 463.96262L90.49687 463.96262ZM100.91875 462.93137Q100.1375 463.60324 99.41875 463.8845Q98.7 464.15012 97.87187 464.15012Q96.49687 464.15012 95.7625 463.47824Q95.02812 462.80637 95.02812 461.77512Q95.02812 461.16574 95.30937 460.66574Q95.59062 460.15012 96.02812 459.85324Q96.48125 459.54074 97.04375 459.3845Q97.46562 459.27512 98.29375 459.18137Q99.99687 458.97824 100.80937 458.697Q100.80937 458.40012 100.80937 458.322Q100.80937 457.46262 100.41875 457.11887Q99.87187 456.6345 98.80937 456.6345Q97.825 456.6345 97.34062 456.99387Q96.87187 457.33762 96.65312 458.21262L95.27812 458.02512Q95.46562 457.15012 95.8875 456.60324Q96.325 456.05637 97.1375 455.77512Q97.95 455.47824 99.0125 455.47824Q100.075 455.47824 100.73125 455.72824Q101.40312 455.97824 101.71562 456.35324Q102.02812 456.72824 102.15312 457.30637Q102.23125 457.66574 102.23125 458.60324L102.23125 460.47824Q102.23125 462.447 102.30937 462.96262Q102.40312 463.47824 102.66875 463.96262L101.2 463.96262Q100.98125 463.52512 100.91875 462.93137ZM100.80937 459.79074Q100.04375 460.10324 98.5125 460.322Q97.6375 460.447 97.27812 460.60324Q96.91875 460.7595 96.71562 461.072Q96.52812 461.36887 96.52812 461.72824Q96.52812 462.29074 96.95 462.66574Q97.3875 463.04074 98.2 463.04074Q99.0125 463.04074 99.6375 462.697Q100.27812 462.33762 100.575 461.71262Q100.80937 461.24387 100.80937 460.30637L100.80937 459.79074ZM104.48125 463.96262L104.48125 452.5095L105.8875 452.5095L105.8875 463.96262L104.48125 463.96262ZM116.91875 462.93137Q116.1375 463.60324 115.41875 463.8845Q114.7 464.15012 113.87187 464.15012Q112.49687 464.15012 111.7625 463.47824Q111.02812 462.80637 111.02812 461.77512Q111.02812 461.16574 111.30937 460.66574Q111.59062 460.15012 112.02812 459.85324Q112.48125 459.54074 113.04375 459.3845Q113.46562 459.27512 114.29375 459.18137Q115.99687 458.97824 116.80937 458.697Q116.80937 458.40012 116.80937 458.322Q116.80937 457.46262 116.41875 457.11887Q115.87187 456.6345 114.80937 456.6345Q113.825 456.6345 113.34062 456.99387Q112.87187 457.33762 112.65312 458.21262L111.27812 458.02512Q111.46562 457.15012 111.8875 456.60324Q112.325 456.05637 113.1375 455.77512Q113.95 455.47824 115.0125 455.47824Q116.075 455.47824 116.73125 455.72824Q117.40312 455.97824 117.71562 456.35324Q118.02812 456.72824 118.15312 457.30637Q118.23125 457.66574 118.23125 458.60324L118.23125 460.47824Q118.23125 462.447 118.30937 462.96262Q118.40312 463.47824 118.66875 463.96262L117.2 463.96262Q116.98125 463.52512 116.91875 462.93137ZM116.80937 459.79074Q116.04375 460.10324 114.5125 460.322Q113.6375 460.447 113.27812 460.60324Q112.91875 460.7595 112.71562 461.072Q112.52812 461.36887 112.52812 461.72824Q112.52812 462.29074 112.95 462.66574Q113.3875 463.04074 114.2 463.04074Q115.0125 463.04074 115.6375 462.697Q116.27812 462.33762 116.575 461.71262Q116.80937 461.24387 116.80937 460.30637L116.80937 459.79074ZM120.5125 467.15012L120.5125 455.66574L121.79375 455.66574L121.79375 456.74387Q122.24687 456.10324 122.80937 455.79074Q123.3875 455.47824 124.2 455.47824Q125.2625 455.47824 126.075 456.02512Q126.8875 456.572 127.29375 457.572Q127.71562 458.55637 127.71562 459.74387Q127.71562 461.02512 127.24687 462.04074Q126.79375 463.05637 125.91875 463.60324Q125.05937 464.15012 124.09062 464.15012Q123.3875 464.15012 122.825 463.85324Q122.27812 463.55637 121.91875 463.10324L121.91875 467.15012L120.5125 467.15012ZM121.77812 459.85324Q121.77812 461.46262 122.41875 462.22824Q123.075 462.99387 123.99687 462.99387Q124.93437 462.99387 125.60625 462.197Q126.27812 461.40012 126.27812 459.74387Q126.27812 458.15012 125.62187 457.36887Q124.96562 456.572 124.05937 456.572Q123.16875 456.572 122.46562 457.41574Q121.77812 458.2595 121.77812 459.85324ZM129.5125 467.15012L129.5125 455.66574L130.79375 455.66574L130.79375 456.74387Q131.24687 456.10324 131.80937 455.79074Q132.3875 455.47824 133.2 455.47824Q134.2625 455.47824 135.075 456.02512Q135.8875 456.572 136.29375 457.572Q136.71562 458.55637 136.71562 459.74387Q136.71562 461.02512 136.24687 462.04074Q135.79375 463.05637 134.91875 463.60324Q134.05937 464.15012 133.09062 464.15012Q132.3875 464.15012 131.825 463.85324Q131.27812 463.55637 130.91875 463.10324L130.91875 467.15012L129.5125 467.15012ZM130.77812 459.85324Q130.77812 461.46262 131.41875 462.22824Q132.075 462.99387 132.99687 462.99387Q133.93437 462.99387 134.60625 462.197Q135.27812 461.40012 135.27812 459.74387Q135.27812 458.15012 134.62187 457.36887Q133.96562 456.572 133.05937 456.572Q132.16875 456.572 131.46562 457.41574Q130.77812 458.2595 130.77812 459.85324ZM138.49687 463.96262L138.49687 455.66574L139.7625 455.66574L139.7625 456.91574Q140.24687 456.04074 140.65312 455.7595Q141.05937 455.47824 141.55937 455.47824Q142.2625 455.47824 142.99687 455.93137L142.5125 457.22824Q141.99687 456.93137 141.48125 456.93137Q141.02812 456.93137 140.65312 457.21262Q140.29375 457.47824 140.1375 457.97824Q139.90312 458.72824 139.90312 459.61887L139.90312 463.96262L138.49687 463.96262ZM142.98125 459.80637Q142.98125 457.5095 144.2625 456.40012Q145.34062 455.47824 146.87187 455.47824Q148.59062 455.47824 149.66875 456.60324Q150.7625 457.71262 150.7625 459.697Q150.7625 461.29074 150.27812 462.21262Q149.79375 463.1345 148.87187 463.65012Q147.96562 464.15012 146.87187 464.15012Q145.1375 464.15012 144.05937 463.04074Q142.98125 461.91574 142.98125 459.80637ZM144.43437 459.80637Q144.43437 461.40012 145.12187 462.197Q145.825 462.99387 146.87187 462.99387Q147.91875 462.99387 148.60625 462.197Q149.30937 461.40012 149.30937 459.7595Q149.30937 458.22824 148.60625 457.43137Q147.91875 456.6345 146.87187 456.6345Q145.825 456.6345 145.12187 457.43137Q144.43437 458.21262 144.43437 459.80637ZM157.91875 462.93137Q157.1375 463.60324 156.41875 463.8845Q155.7 464.15012 154.87187 464.15012Q153.49687 464.15012 152.7625 463.47824Q152.02812 462.80637 152.02812 461.77512Q152.02812 461.16574 152.30937 460.66574Q152.59062 460.15012 153.02812 459.85324Q153.48125 459.54074 154.04375 459.3845Q154.46562 459.27512 155.29375 459.18137Q156.99687 458.97824 157.80937 458.697Q157.80937 458.40012 157.80937 458.322Q157.80937 457.46262 157.41875 457.11887Q156.87187 456.6345 155.80937 456.6345Q154.825 456.6345 154.34062 456.99387Q153.87187 457.33762 153.65312 458.21262L152.27812 458.02512Q152.46562 457.15012 152.8875 456.60324Q153.325 456.05637 154.1375 455.77512Q154.95 455.47824 156.0125 455.47824Q157.075 455.47824 157.73125 455.72824Q158.40312 455.97824 158.71562 456.35324Q159.02812 456.72824 159.15312 457.30637Q159.23125 457.66574 159.23125 458.60324L159.23125 460.47824Q159.23125 462.447 159.30937 462.96262Q159.40312 463.47824 159.66875 463.96262L158.2 463.96262Q157.98125 463.52512 157.91875 462.93137ZM157.80937 459.79074Q157.04375 460.10324 155.5125 460.322Q154.6375 460.447 154.27812 460.60324Q153.91875 460.7595 153.71562 461.072Q153.52812 461.36887 153.52812 461.72824Q153.52812 462.29074 153.95 462.66574Q154.3875 463.04074 155.2 463.04074Q156.0125 463.04074 156.6375 462.697Q157.27812 462.33762 157.575 461.71262Q157.80937 461.24387 157.80937 460.30637L157.80937 459.79074ZM166.91875 460.91574L168.30937 461.10324Q168.075 462.52512 167.1375 463.33762Q166.21562 464.15012 164.85625 464.15012Q163.15312 464.15012 162.10625 463.04074Q161.075 461.91574 161.075 459.83762Q161.075 458.49387 161.5125 457.49387Q161.96562 456.47824 162.87187 455.97824Q163.79375 455.47824 164.85625 455.47824Q166.21562 455.47824 167.075 456.16574Q167.93437 456.83762 168.16875 458.10324L166.80937 458.30637Q166.60625 457.47824 166.10625 457.05637Q165.62187 456.6345 164.91875 456.6345Q163.85625 456.6345 163.18437 457.40012Q162.52812 458.15012 162.52812 459.80637Q162.52812 461.47824 163.16875 462.24387Q163.80937 462.99387 164.84062 462.99387Q165.66875 462.99387 166.21562 462.49387Q166.77812 461.97824 166.91875 460.91574ZM169.5125 463.96262L169.5125 452.5095L170.91875 452.5095L170.91875 456.61887Q171.90312 455.47824 173.40312 455.47824Q174.325 455.47824 174.99687 455.83762Q175.68437 456.197 175.96562 456.83762Q176.2625 457.47824 176.2625 458.697L176.2625 463.96262L174.85625 463.96262L174.85625 458.697Q174.85625 457.65012 174.40312 457.16574Q173.95 456.68137 173.10625 456.68137Q172.48125 456.68137 171.93437 457.0095Q171.3875 457.33762 171.15312 457.90012Q170.91875 458.447 170.91875 459.41574L170.91875 463.96262L169.5125 463.96262Z" fill-rule="nonzero"/><path fill="#000000" d="M181.45 533.3156Q181.45 531.78436 181.7625 530.8625Q182.075 529.925 182.68437 529.425Q183.30937 528.925 184.24687 528.925Q184.93437 528.925 185.45 529.20624Q185.98125 529.4875 186.325 530.01874Q186.66875 530.53436 186.85625 531.28436Q187.04375 532.03436 187.04375 533.3156Q187.04375 534.83124 186.73125 535.7531Q186.43437 536.675 185.80937 537.1906Q185.2 537.6906 184.24687 537.6906Q183.0125 537.6906 182.29375 536.8Q181.45 535.7375 181.45 533.3156ZM182.52812 533.3156Q182.52812 535.425 183.02812 536.1281Q183.52812 536.83124 184.24687 536.83124Q184.98125 536.83124 185.46562 536.1281Q185.96562 535.425 185.96562 533.3156Q185.96562 531.1906 185.46562 530.5031Q184.98125 529.8 184.23125 529.8Q183.5125 529.8 183.075 530.40936Q182.52812 531.1906 182.52812 533.3156Z" fill-rule="nonzero"/><path fill="#000000" d="M417.9521 537.55L416.9052 537.55L416.9052 530.83124Q416.5146 531.1906 415.8896 531.5656Q415.2802 531.925 414.79584 532.09686L414.79584 531.08124Q415.67084 530.65936 416.3271 530.08124Q416.99896 529.4875 417.2802 528.925L417.9521 528.925L417.9521 537.55ZM420.98334 533.3156Q420.98334 531.78436 421.29584 530.8625Q421.60834 529.925 422.2177 529.425Q422.8427 528.925 423.7802 528.925Q424.4677 528.925 424.98334 529.20624Q425.5146 529.4875 425.85834 530.01874Q426.2021 530.53436 426.3896 531.28436Q426.5771 532.03436 426.5771 533.3156Q426.5771 534.83124 426.2646 535.7531Q425.9677 536.675 425.3427 537.1906Q424.73334 537.6906 423.7802 537.6906Q422.54584 537.6906 421.8271 536.8Q420.98334 535.7375 420.98334 533.3156ZM422.06146 533.3156Q422.06146 535.425 422.56146 536.1281Q423.06146 536.83124 423.7802 536.83124Q424.5146 536.83124 424.99896 536.1281Q425.49896 535.425 425.49896 533.3156Q425.49896 531.1906 424.99896 530.5031Q424.5146 529.8 423.7646 529.8Q423.04584 529.8 422.60834 530.40936Q422.06146 531.1906 422.06146 533.3156Z" fill-rule="nonzero"/><path fill="#000000" d="M655.56354 536.53436L655.56354 537.55L649.87604 537.55Q649.87604 537.175 650.00104 536.8156Q650.2198 536.2375 650.68854 535.675Q651.1729 535.1125 652.07916 534.3781Q653.4854 533.22186 653.9698 532.55Q654.4698 531.8781 654.4698 531.28436Q654.4698 530.65936 654.01666 530.2375Q653.56354 529.8 652.8448 529.8Q652.07916 529.8 651.62604 530.2531Q651.1729 530.70624 651.1573 531.51874L650.07916 531.40936Q650.18854 530.1906 650.9073 529.5656Q651.64166 528.925 652.87604 528.925Q654.1104 528.925 654.82916 529.6125Q655.5479 530.3 655.5479 531.3156Q655.5479 531.83124 655.32916 532.33124Q655.12604 532.8156 654.62604 533.3781Q654.14166 533.925 653.01666 534.8781Q652.06354 535.675 651.7823 535.97186Q651.51666 536.2531 651.3448 536.53436L655.56354 536.53436ZM657.01666 533.3156Q657.01666 531.78436 657.32916 530.8625Q657.64166 529.925 658.25104 529.425Q658.87604 528.925 659.81354 528.925Q660.50104 528.925 661.01666 529.20624Q661.5479 529.4875 661.89166 530.01874Q662.2354 530.53436 662.4229 531.28436Q662.6104 532.03436 662.6104 533.3156Q662.6104 534.83124 662.2979 535.7531Q662.00104 536.675 661.37604 537.1906Q660.76666 537.6906 659.81354 537.6906Q658.57916 537.6906 657.8604 536.8Q657.01666 535.7375 657.01666 533.3156ZM658.0948 533.3156Q658.0948 535.425 658.5948 536.1281Q659.0948 536.83124 659.81354 536.83124Q660.5479 536.83124 661.0323 536.1281Q661.5323 535.425 661.5323 533.3156Q661.5323 531.1906 661.0323 530.5031Q660.5479 529.8 659.7979 529.8Q659.07916 529.8 658.64166 530.40936Q658.0948 531.1906 658.0948 533.3156Z" fill-rule="nonzero"/><path fill="#000000" d="M886.05 535.28436L887.1125 535.14374Q887.28436 536.03436 887.72186 536.4406Q888.15936 536.83124 888.78436 536.83124Q889.53436 536.83124 890.05 536.3156Q890.5656 535.8 890.5656 535.03436Q890.5656 534.3156 890.08124 533.84686Q889.6125 533.3625 888.8781 533.3625Q888.58124 533.3625 888.1281 533.4875L888.2531 532.55Q888.3625 532.5656 888.425 532.5656Q889.09686 532.5656 889.6281 532.22186Q890.175 531.8625 890.175 531.1281Q890.175 530.55 889.78436 530.175Q889.39374 529.78436 888.76874 529.78436Q888.15936 529.78436 887.7375 530.175Q887.33124 530.5656 887.22186 531.33124L886.15936 531.14374Q886.34686 530.09686 887.03436 529.51874Q887.72186 528.925 888.7375 528.925Q889.4406 528.925 890.03436 529.2375Q890.6281 529.53436 890.9406 530.05Q891.2531 530.5656 891.2531 531.15936Q891.2531 531.70624 890.95624 532.175Q890.65936 532.6281 890.08124 532.89374Q890.83124 533.0656 891.2531 533.6281Q891.675 534.175 891.675 535.01874Q891.675 536.14374 890.84686 536.925Q890.03436 537.70624 888.78436 537.70624Q887.65936 537.70624 886.90936 537.03436Q886.15936 536.34686 886.05 535.28436ZM893.05 533.3156Q893.05 531.78436 893.3625 530.8625Q893.675 529.925 894.28436 529.425Q894.90936 528.925 895.84686 528.925Q896.53436 528.925 897.05 529.20624Q897.58124 529.4875 897.925 530.01874Q898.26874 530.53436 898.45624 531.28436Q898.64374 532.03436 898.64374 533.3156Q898.64374 534.83124 898.33124 535.7531Q898.03436 536.675 897.40936 537.1906Q896.8 537.6906 895.84686 537.6906Q894.6125 537.6906 893.89374 536.8Q893.05 535.7375 893.05 533.3156ZM894.1281 533.3156Q894.1281 535.425 894.6281 536.1281Q895.1281 536.83124 895.84686 536.83124Q896.58124 536.83124 897.0656 536.1281Q897.5656 535.425 897.5656 533.3156Q897.5656 531.1906 897.0656 530.5031Q896.58124 529.8 895.83124 529.8Q895.1125 529.8 894.675 530.40936Q894.1281 531.1906 894.1281 533.3156Z" fill-rule="nonzero"/></svg>